<svg xmlns="http://www.w3.org/2000/svg" viewBox="0 0 128 128" role="img" aria-labelledby="title desc">
  <title id="title">Наши группы</title>
  <desc id="desc">Стилизованная иконка сообщества и чата</desc>
  <defs>
    <radialGradient id="bg" cx="34%" cy="22%" r="88%">
      <stop stop-color="#1779b6"/>
      <stop offset=".58" stop-color="#0b426f"/>
      <stop offset="1" stop-color="#062542"/>
    </radialGradient>
    <linearGradient id="ring" x1="0" y1="0" x2="1" y2="1">
      <stop stop-color="#9aeaff"/>
      <stop offset="1" stop-color="#2f9dcc"/>
    </linearGradient>
    <filter id="glow" x="-35%" y="-35%" width="170%" height="170%">
      <feGaussianBlur stdDeviation="3" result="blur"/>
      <feMerge><feMergeNode in="blur"/><feMergeNode in="SourceGraphic"/></feMerge>
    </filter>
  </defs>
  <circle cx="64" cy="64" r="60" fill="url(#bg)" stroke="url(#ring)" stroke-width="3"/>
  <circle cx="64" cy="64" r="51" fill="none" stroke="#b8f4ff" stroke-opacity=".18"/>
  <path d="M64 24 85 36v25c0 19-9 31-21 40-12-9-21-21-21-40V36Z" fill="#0b3559" stroke="#76ddf7" stroke-width="2"/>
  <g fill="none" stroke="#d3f8ff" stroke-linecap="round" stroke-linejoin="round" stroke-width="3" filter="url(#glow)">
    <circle cx="64" cy="49" r="8"/>
    <path d="M49 76c1-10 7-16 15-16s14 6 15 16"/>
    <circle cx="42" cy="57" r="5"/>
    <path d="M33 76c1-7 4-11 10-12"/>
    <circle cx="86" cy="57" r="5"/>
    <path d="M95 76c-1-7-4-11-10-12"/>
  </g>
  <path d="M80 79h18a6 6 0 0 1 6 6v10a6 6 0 0 1-6 6H88l-8 7v-7a6 6 0 0 1-6-6V85a6 6 0 0 1 6-6Z" fill="#1a8dbc" stroke="#b9f4ff" stroke-width="2" filter="url(#glow)"/>
  <path d="M84 89h14M84 94h10" stroke="#effdff" stroke-linecap="round" stroke-width="2.5"/>
</svg>
